<?xml version="1.0" encoding="UTF-8"?>
<svg width="130px" height="127px" viewBox="0 0 130 127" version="1.1" xmlns="http://www.w3.org/2000/svg" xmlns:xlink="http://www.w3.org/1999/xlink">
    <title>benefit-02-icon</title>
    <defs>
        <circle id="path-1" cx="60" cy="60" r="60"></circle>
    </defs>
    <g id="Page-1" stroke="none" stroke-width="1" fill="none" fill-rule="evenodd">
        <g id="Beyondminds_Use_Case" transform="translate(-690.000000, -4770.000000)">
            <g id="Group-34-Copy" transform="translate(587.000000, 4770.000000)">
                <g id="benefit-02-icon" transform="translate(104.000000, 0.000000)">
                    <rect id="Rectangle" x="1" y="0" width="127" height="127"></rect>
                    <g id="Group-21" transform="translate(0.000000, 3.000000)">
                        <g id="Group-18">
                            <g id="Group-10" transform="translate(0.395712, 0.395712)">
                                <mask id="mask-2" fill="white">
                                    <use xlink:href="#path-1"></use>
                                </mask>
                                <g id="Oval"></g>
                                <rect id="Rectangle-Copy" stroke="#FFFFFF" stroke-width="1.86919691" stroke-linecap="round" stroke-linejoin="round" mask="url(#mask-2)" x="-62.3" y="12.2" width="142" height="142" rx="71"></rect>
                                <path d="M87.6807727,67.1089612 C141.413602,77.4665341 182,124.743536 182,181.5 C182,245.841173 129.841173,298 65.5,298 C1.15882664,298 -51,245.841173 -51,181.5 C-51,136.026465 -24.9464264,96.6380673 13.0479014,77.4476276 C28.8123062,69.4852322 46.6323621,65 65.5,65" id="Path" stroke="#FFFFFF" stroke-width="1.86919691" stroke-linecap="round" stroke-linejoin="round" stroke-dasharray="0,4" mask="url(#mask-2)" transform="translate(65.500000, 181.500000) rotate(-300.000000) translate(-65.500000, -181.500000) "></path>
                                <path d="M160.514398,-180.954398 C212.632935,-170.907997 252,-125.051334 252,-70 C252,-7.59182327 201.408177,43 139,43 C76.5918233,43 26,-7.59182327 26,-70 C26,-114.107378 51.2708482,-152.312433 88.1237155,-170.926335 C103.414512,-178.649517 120.699201,-183 139,-183" id="Path-Copy-3" stroke="#131727" stroke-width="1.86919691" stroke-linecap="round" stroke-linejoin="round" stroke-dasharray="0,4" mask="url(#mask-2)" transform="translate(139.000000, -70.000000) rotate(-300.000000) translate(-139.000000, 70.000000) "></path>
                            </g>
                            <path d="M53.9473684,67.4736842 C53.9473684,72.7050526 49.7069474,76.9473684 44.4736842,76.9473684 C39.2404211,76.9473684 35,72.7050526 35,67.4736842 C35,62.2423158 39.2404211,58 44.4736842,58 C49.7069474,58 53.9473684,62.2423158 53.9473684,67.4736842 Z" id="Stroke-7" stroke="#5DD9A5" stroke-width="1.86919691" fill="#131727" stroke-linecap="round" stroke-linejoin="round"></path>
                            <path d="M46.9103314,67.4736842 C46.9103314,68.8187135 45.8211501,69.9103314 44.4736842,69.9103314 C43.1262183,69.9103314 42.037037,68.8187135 42.037037,67.4736842 C42.037037,66.128655 43.1262183,65.037037 44.4736842,65.037037 C45.8211501,65.037037 46.9103314,66.128655 46.9103314,67.4736842 Z" id="Stroke-5" stroke="#5DD9A5" stroke-width="1.86919691" fill="#131727" stroke-linecap="round" stroke-linejoin="round"></path>
                            <path d="M88.9459957,27.4750331 C88.9459957,32.7064016 84.7055747,36.9487174 79.4723115,36.9487174 C74.2390484,36.9487174 69.9986273,32.7064016 69.9986273,27.4750331 C69.9986273,22.2436647 74.2390484,18.0013489 79.4723115,18.0013489 C84.7055747,18.0013489 88.9459957,22.2436647 88.9459957,27.4750331 Z" id="Stroke-7" stroke="#5DD9A5" stroke-width="1.86919691" fill="#131727" stroke-linecap="round" stroke-linejoin="round" transform="translate(79.472312, 27.475033) rotate(1.000000) translate(-79.472312, -27.475033) "></path>
                            <path d="M81.9089587,27.4750331 C81.9089587,28.8200624 80.8197774,29.9116803 79.4723115,29.9116803 C78.1248456,29.9116803 77.0356644,28.8200624 77.0356644,27.4750331 C77.0356644,26.1300039 78.1248456,25.038386 79.4723115,25.038386 C80.8197774,25.038386 81.9089587,26.1300039 81.9089587,27.4750331 Z" id="Stroke-5" stroke="#5DD9A5" stroke-width="1.86919691" fill="#131727" stroke-linecap="round" stroke-linejoin="round" transform="translate(79.472312, 27.475033) rotate(1.000000) translate(-79.472312, -27.475033) "></path>
                            <path d="M30.6573064,8.27219643 C12.5791024,18.6087329 0.395711501,38.0794305 0.395711501,60.3957115 C0.395711501,93.5327965 27.2586265,120.395712 60.3957115,120.395712 C71.6315684,120.395712 82.1460853,117.307287 91.1366501,111.933051" id="Path" stroke="#FFFFFF" stroke-width="1.86919691" stroke-linecap="round" stroke-linejoin="round"></path>
                            <path d="M104.33795,101.250445 C114.30156,90.5386946 120.395712,76.1788857 120.395712,60.3957115 C120.395712,27.2586265 93.5327965,0.395711501 60.3957115,0.395711501 C55.2051045,0.395711501 50.168442,1.05482594 45.3648539,2.29392479" id="Path" stroke="#FFFFFF" stroke-width="1.86919691" stroke-linecap="round" stroke-linejoin="round" stroke-dasharray="0,4"></path>
                            <g id="Group-11" transform="translate(107.395712, 67.395712)" fill="#131727" stroke="#5DD9A5" stroke-linecap="round" stroke-linejoin="round" stroke-width="1.86919691">
                                <path d="M19.5516569,10.0779727 C19.5516569,15.3093411 15.3112359,19.5516569 10.0779727,19.5516569 C4.84470955,19.5516569 0.604288499,15.3093411 0.604288499,10.0779727 C0.604288499,4.84660429 4.84470955,0.604288499 10.0779727,0.604288499 C15.3112359,0.604288499 19.5516569,4.84660429 19.5516569,10.0779727 Z" id="Stroke-7"></path>
                                <path d="M12.5146199,10.0779727 C12.5146199,11.4230019 11.4254386,12.5146199 10.0779727,12.5146199 C8.73050682,12.5146199 7.64132554,11.4230019 7.64132554,10.0779727 C7.64132554,8.73294347 8.73050682,7.64132554 10.0779727,7.64132554 C11.4254386,7.64132554 12.5146199,8.73294347 12.5146199,10.0779727 Z" id="Stroke-5"></path>
                            </g>
                        </g>
                    </g>
                </g>
            </g>
        </g>
    </g>
</svg>